<svg width="18" height="18" viewBox="0 0 18 18" fill="none" xmlns="http://www.w3.org/2000/svg">
<g opacity="0.8">
<path d="M3.00001 6.33325H5.00001C5.35363 6.33325 5.69277 6.19278 5.94282 5.94273C6.19287 5.69268 6.33334 5.35354 6.33334 4.99992V2.99992" stroke="#93989F" stroke-width="1.5" stroke-linecap="round" stroke-linejoin="round"/>
<path d="M11.6667 2.99992V4.99992C11.6667 5.35354 11.8071 5.69268 12.0572 5.94273C12.3072 6.19278 12.6464 6.33325 13 6.33325H15" stroke="#93989F" stroke-width="1.5" stroke-linecap="round" stroke-linejoin="round"/>
<path d="M15 11.6669H13C12.6464 11.6669 12.3072 11.8074 12.0572 12.0574C11.8071 12.3075 11.6667 12.6466 11.6667 13.0002V15.0002" stroke="#93989F" stroke-width="1.5" stroke-linecap="round" stroke-linejoin="round"/>
<path d="M6.33334 15V13C6.33334 12.6464 6.19287 12.3072 5.94282 12.0572C5.69277 11.8071 5.35363 11.6667 5.00001 11.6667H3.00001" stroke="#93989F" stroke-width="1.5" stroke-linecap="round" stroke-linejoin="round"/>
</g>
</svg>
