<svg width="28" height="28" viewBox="0 0 28 28" fill="none" xmlns="http://www.w3.org/2000/svg">
<path fill-rule="evenodd" clip-rule="evenodd" d="M6 7C4.89543 7 4 7.89543 4 9V11.5C4 11.7761 4.22733 11.9936 4.49494 12.0617C5.36012 12.282 6 13.0663 6 14C6 14.9337 5.36012 15.718 4.49494 15.9383C4.22733 16.0064 4 16.2239 4 16.5V19C4 20.1046 4.89543 21 6 21H22C23.1046 21 24 20.1046 24 19V16.5C24 16.2239 23.7727 16.0064 23.5051 15.9383C22.6399 15.718 22 14.9337 22 14C22 13.0663 22.6399 12.282 23.5051 12.0617C23.7727 11.9936 24 11.7761 24 11.5V9C24 7.89543 23.1046 7 22 7H6ZM18.7779 11.6283C19.125 11.1987 19.058 10.5691 18.6283 10.2221C18.1987 9.87504 17.5691 9.94202 17.2221 10.3717L13.5428 14.9269C13.3427 15.1747 12.965 15.1747 12.7649 14.9269L11.7779 13.705C11.4309 13.2754 10.8013 13.2084 10.3717 13.5554C9.94202 13.9024 9.87504 14.532 10.2221 14.9617L12.3759 17.6283C12.5658 17.8634 12.8517 18 13.1538 18C13.456 18 13.7419 17.8634 13.9318 17.6283L18.7779 11.6283Z" fill="#F18781"/>
</svg>
