<svg width="28" height="28" viewBox="0 0 28 28" fill="none" xmlns="http://www.w3.org/2000/svg">
<path fill-rule="evenodd" clip-rule="evenodd" d="M3 11C3 9.34315 4.34315 8 6 8H22C23.6569 8 25 9.34315 25 11V21C25 22.6569 23.6569 24 22 24H19.9146C19.9699 23.8436 20 23.6753 20 23.5C20 22.6716 19.3284 22 18.5 22C17.6716 22 17 22.6716 17 23.5C17 23.6753 17.0301 23.8436 17.0854 24H10.9146C10.9699 23.8436 11 23.6753 11 23.5C11 22.6716 10.3284 22 9.5 22C8.67157 22 8 22.6716 8 23.5C8 23.6753 8.03008 23.8436 8.08535 24H6C4.34315 24 3 22.6569 3 21V11ZM10 14.5C11.1046 14.5 12 13.6046 12 12.5C12 11.3954 11.1046 10.5 10 10.5C8.89543 10.5 8 11.3954 8 12.5C8 13.6046 8.89543 14.5 10 14.5ZM10 14.5C11.0609 14.5 12.0783 14.9214 12.8284 15.6716C13.3405 16.1837 13.6994 16.8203 13.8757 17.5104C14.0123 18.0455 13.5523 18.5 13 18.5H7C6.44772 18.5 5.98769 18.0455 6.12435 17.5104C6.30056 16.8203 6.65947 16.1837 7.17157 15.6716C7.92172 14.9214 8.93913 14.5 10 14.5ZM16.25 12C16.25 11.5858 16.5858 11.25 17 11.25H20C20.4142 11.25 20.75 11.5858 20.75 12C20.75 12.4142 20.4142 12.75 20 12.75H17C16.5858 12.75 16.25 12.4142 16.25 12ZM17 14.25C16.5858 14.25 16.25 14.5858 16.25 15C16.25 15.4142 16.5858 15.75 17 15.75H21C21.4142 15.75 21.75 15.4142 21.75 15C21.75 14.5858 21.4142 14.25 21 14.25H17Z" fill="#7DC9B7"/>
<path opacity="0.5" fill-rule="evenodd" clip-rule="evenodd" d="M6 4C4.34315 4 3 5.34315 3 7V7.64584C3.79613 6.93328 4.84747 6.5 6 6.5H22C23.1525 6.5 24.2039 6.93328 25 7.64584V7C25 5.34315 23.6569 4 22 4H6Z" fill="#7DC9B7"/>
</svg>
