<svg width="28" height="28" viewBox="0 0 28 28" fill="none" xmlns="http://www.w3.org/2000/svg">
<path d="M22.0909 11L25 14M25 14H19M25 14L22.0919 17" stroke="#93989F" stroke-width="1.5" stroke-linecap="round" stroke-linejoin="round"/>
<path fill-rule="evenodd" clip-rule="evenodd" d="M4.61333 22.8502L13.1848 23.9933C13.286 24.0068 13.3892 23.9998 13.4874 23.9729C13.5855 23.9459 13.6763 23.8996 13.7536 23.8371C13.8309 23.7746 13.8929 23.6973 13.9354 23.6104C13.9779 23.5236 13.9999 23.4292 14 23.3338V4.66721C14.0001 4.56777 13.9763 4.46957 13.9305 4.37981C13.8847 4.29005 13.8179 4.21099 13.7351 4.14844C13.6522 4.08588 13.5555 4.04141 13.4518 4.01828C13.3482 3.99515 13.2404 3.99395 13.1362 4.01477L4.56476 5.98898C4.40481 6.02094 4.26146 6.10316 4.15867 6.22192C4.05588 6.34067 3.99987 6.48875 4 6.64142V22.1907C4.00011 22.3511 4.06219 22.5061 4.17484 22.6272C4.2875 22.7484 4.44319 22.8275 4.61333 22.8502ZM10.5 15.5C11.3284 15.5 12 14.8284 12 14C12 13.1716 11.3284 12.5 10.5 12.5C9.67157 12.5 9 13.1716 9 14C9 14.8284 9.67157 15.5 10.5 15.5Z" fill="#93989F"/>
<path opacity="0.5" fill-rule="evenodd" clip-rule="evenodd" d="M18 6H16V22H18C19.1046 22 20 21.1046 20 20V16.5H19C17.6193 16.5 16.5 15.3807 16.5 14C16.5 12.6193 17.6193 11.5 19 11.5H20V8C20 6.89543 19.1046 6 18 6Z" fill="#93989F"/>
</svg>
