<svg width="28" height="28" viewBox="0 0 28 28" fill="none" xmlns="http://www.w3.org/2000/svg">
<path fill-rule="evenodd" clip-rule="evenodd" d="M13.2916 5.92267C13.0689 5.82351 12.8695 5.67865 12.7063 5.49748L11.8703 4.57425C11.6291 4.30898 11.3118 4.12462 10.9619 4.04633C10.612 3.96804 10.2465 3.99963 9.91524 4.1368C9.58396 4.27396 9.30306 4.51001 9.11088 4.81274C8.91869 5.11548 8.82458 5.47014 8.84138 5.82835L8.90096 7.07444C8.91402 7.31833 8.87564 7.56225 8.78831 7.79034C8.70098 8.01843 8.56665 8.2256 8.39405 8.39839C8.22146 8.57118 8.01445 8.70573 7.78648 8.79329C7.5585 8.88086 7.31466 8.91948 7.07079 8.90666L5.82578 8.84351C5.46749 8.82638 5.11265 8.92034 4.80978 9.11254C4.5069 9.30474 4.27076 9.58581 4.13364 9.91731C3.99653 10.2488 3.96512 10.6146 4.04372 10.9646C4.12232 11.3147 4.30708 11.6319 4.57276 11.8729L5.49852 12.7134C5.67944 12.8769 5.82407 13.0765 5.92306 13.2993C6.02205 13.5221 6.07319 13.7633 6.07319 14.0071C6.07319 14.2509 6.02205 14.4921 5.92306 14.7149C5.82407 14.9377 5.67944 15.1373 5.49852 15.3008L4.57276 16.1368C4.30622 16.3781 4.12089 16.696 4.04221 17.0469C3.96353 17.3977 3.99537 17.7643 4.13334 18.0963C4.27132 18.4284 4.50867 18.7096 4.81281 18.9013C5.11696 19.093 5.47298 19.1859 5.832 19.1671L7.07702 19.104C7.32043 19.0914 7.56376 19.1302 7.79126 19.2176C8.01876 19.3051 8.22537 19.4394 8.39771 19.6117C8.57006 19.7841 8.7043 19.9907 8.79175 20.2183C8.87921 20.4458 8.91793 20.6892 8.90541 20.9326L8.84138 22.1778C8.82497 22.5359 8.91937 22.8903 9.1117 23.1927C9.30403 23.4952 9.58494 23.7309 9.91613 23.8678C10.2473 24.0048 10.6127 24.0362 10.9624 23.9579C11.3121 23.8796 11.6292 23.6953 11.8703 23.4301L12.7107 22.5042C12.874 22.3233 13.0735 22.1787 13.2963 22.0797C13.519 21.9807 13.76 21.9295 14.0037 21.9295C14.2475 21.9295 14.4885 21.9807 14.7112 22.0797C14.934 22.1787 15.1334 22.3233 15.2968 22.5042L16.1336 23.4301C16.3752 23.694 16.6921 23.8772 17.0413 23.9546C17.3905 24.0321 17.7552 24.0002 18.0856 23.8632C18.4161 23.7262 18.6964 23.4908 18.8884 23.189C19.0804 22.8871 19.1749 22.5335 19.159 22.1761L19.0959 20.9309C19.0833 20.6874 19.1221 20.444 19.2095 20.2165C19.297 19.989 19.4312 19.7823 19.6035 19.61C19.7759 19.4376 19.9825 19.3033 20.21 19.2159C20.4375 19.1284 20.6808 19.0897 20.9242 19.1022L22.1693 19.1653C22.5284 19.1836 22.8845 19.0903 23.1885 18.8982C23.4925 18.706 23.7296 18.4245 23.8673 18.0922C24.005 17.7599 24.0364 17.3931 23.9574 17.0422C23.8784 16.6914 23.6927 16.3735 23.4258 16.1324L22.4992 15.2963C22.3183 15.1329 22.1736 14.9333 22.0746 14.7104C21.9757 14.4876 21.9245 14.2465 21.9245 14.0026C21.9245 13.7588 21.9757 13.5177 22.0746 13.2948C22.1736 13.072 22.3183 12.8724 22.4992 12.709L23.4258 11.8729C23.6925 11.6319 23.878 11.3143 23.9571 10.9637C24.0362 10.6131 24.005 10.2466 23.8676 9.91444C23.7303 9.58229 23.4937 9.30073 23.1901 9.10837C22.8865 8.91601 22.5309 8.82225 22.1719 8.83995L20.9269 8.9031C20.684 8.91496 20.4413 8.8758 20.2145 8.78815C19.9877 8.7005 19.7817 8.5663 19.6099 8.3942C19.438 8.22209 19.3042 8.0159 19.2169 7.7889C19.1295 7.5619 19.0908 7.31912 19.103 7.07622L19.1661 5.83101C19.1844 5.47179 19.0911 5.11571 18.899 4.81164C18.7069 4.50757 18.4254 4.27041 18.0931 4.13272C17.7609 3.99503 17.3942 3.96355 17.0433 4.0426C16.6925 4.12166 16.3747 4.30737 16.1336 4.57425L15.2923 5.49748C15.1291 5.67865 14.9297 5.82351 14.707 5.92267C14.4842 6.02183 14.2431 6.07306 13.9993 6.07306C13.7555 6.07306 13.5144 6.02183 13.2916 5.92267ZM19 14C19 16.7614 16.7614 19 14 19C11.2386 19 9 16.7614 9 14C9 11.2386 11.2386 9 14 9C16.7614 9 19 11.2386 19 14Z" fill="#93989F"/>
<path opacity="0.5" d="M14 17C15.6569 17 17 15.6569 17 14C17 12.3431 15.6569 11 14 11C12.3431 11 11 12.3431 11 14C11 15.6569 12.3431 17 14 17Z" fill="#8B9199"/>
</svg>
