<svg width="18" height="18" viewBox="0 0 18 18" fill="none" xmlns="http://www.w3.org/2000/svg">
<g opacity="0.8">
<path d="M6.33333 3H4.33333C3.97971 3 3.64057 3.14048 3.39052 3.39052C3.14048 3.64057 3 3.97971 3 4.33333V6.33333M15 6.33333V4.33333C15 3.97971 14.8595 3.64057 14.6095 3.39052C14.3594 3.14048 14.0203 3 13.6667 3H11.6667M11.6667 15H13.6667C14.0203 15 14.3594 14.8595 14.6095 14.6095C14.8595 14.3594 15 14.0203 15 13.6667V11.6667M3 11.6667V13.6667C3 14.0203 3.14048 14.3594 3.39052 14.6095C3.64057 14.8595 3.97971 15 4.33333 15H6.33333" stroke="#93989F" stroke-width="1.5" stroke-linecap="round" stroke-linejoin="round"/>
</g>
</svg>
