<svg width="28" height="28" viewBox="0 0 28 28" fill="none" xmlns="http://www.w3.org/2000/svg">
<path fill-rule="evenodd" clip-rule="evenodd" d="M12 7H16V9C16 10.1046 16.8954 11 18 11C19.1046 11 20 10.1046 20 9V7H21C22.6569 7 24 8.34315 24 10V21C24 22.6569 22.6569 24 21 24H7C5.34315 24 4 22.6569 4 21V10C4 8.34315 5.34315 7 7 7H8V9C8 10.1046 8.89543 11 10 11C11.1046 11 12 10.1046 12 9V7ZM9 13.5C8.44772 13.5 8 13.9477 8 14.5V15.5C8 16.0523 8.44772 16.5 9 16.5H10C10.5523 16.5 11 16.0523 11 15.5V14.5C11 13.9477 10.5523 13.5 10 13.5H9ZM12 14.5C12 13.9477 12.4477 13.5 13 13.5H14C14.5523 13.5 15 13.9477 15 14.5V15.5C15 16.0523 14.5523 16.5 14 16.5H13C12.4477 16.5 12 16.0523 12 15.5V14.5ZM9 17.5C8.44772 17.5 8 17.9477 8 18.5V19.5C8 20.0523 8.44772 20.5 9 20.5H10C10.5523 20.5 11 20.0523 11 19.5V18.5C11 17.9477 10.5523 17.5 10 17.5H9ZM12 18.5C12 17.9477 12.4477 17.5 13 17.5H14C14.5523 17.5 15 17.9477 15 18.5V19.5C15 20.0523 14.5523 20.5 14 20.5H13C12.4477 20.5 12 20.0523 12 19.5V18.5ZM17 13.5C16.4477 13.5 16 13.9477 16 14.5V15.5C16 16.0523 16.4477 16.5 17 16.5H18C18.5523 16.5 19 16.0523 19 15.5V14.5C19 13.9477 18.5523 13.5 18 13.5H17Z" fill="#A97AE4"/>
<path opacity="0.5" d="M10 9V5" stroke="#A97AE4" stroke-width="1.5" stroke-linecap="round" stroke-linejoin="round"/>
<path opacity="0.5" d="M18 9V5" stroke="#A97AE4" stroke-width="1.5" stroke-linecap="round" stroke-linejoin="round"/>
</svg>
