<svg width="28" height="28" viewBox="0 0 28 28" fill="none" xmlns="http://www.w3.org/2000/svg">
<path opacity="0.5" fill-rule="evenodd" clip-rule="evenodd" d="M17.5 7.5V3.5L22.5 8.5H18.5C17.9477 8.5 17.5 8.05228 17.5 7.5Z" fill="#7DBDEB"/>
<path fill-rule="evenodd" clip-rule="evenodd" d="M16 3H8C6.34315 3 5 4.34315 5 6V22C5 23.6569 6.34315 25 8 25H20C21.6569 25 23 23.6569 23 22V10H17.4C17.0287 10 16.6726 9.8525 16.41 9.58995C16.1475 9.3274 16 8.9713 16 8.6V3ZM15 16.25C14.5858 16.25 14.25 16.5858 14.25 17C14.25 17.4142 14.5858 17.75 15 17.75H19C19.4142 17.75 19.75 17.4142 19.75 17C19.75 16.5858 19.4142 16.25 19 16.25H15ZM9 20.5C9 20.0858 9.33579 19.75 9.75 19.75H19C19.4142 19.75 19.75 20.0858 19.75 20.5C19.75 20.9142 19.4142 21.25 19 21.25H9.75C9.33579 21.25 9 20.9142 9 20.5ZM8.56641 10.8164V9.99121H9.58691C9.50879 9.67871 9.44043 9.36133 9.44043 9.03906C9.44043 7.78418 10.4609 6.90527 12.2139 6.90527C12.8828 6.90527 13.542 7.02246 13.7959 7.15918V8.46777C13.4883 8.33594 13.0391 8.24805 12.5166 8.24805C11.623 8.24805 11.1689 8.67285 11.1689 9.30762C11.1689 9.54688 11.2178 9.7666 11.2764 9.99121H13.4541V10.8164H11.4473L11.4481 10.8286C11.4527 10.8973 11.457 10.9624 11.457 11.0361C11.457 11.6025 11.2715 12.1494 10.8076 12.4277V12.4766H14.0938V13.8779H8.62988V12.584C9.37207 12.4668 9.78223 11.9053 9.78223 11.1094C9.78223 11.0166 9.77734 10.9189 9.7627 10.8164H8.56641Z" fill="#7DBDEB"/>
</svg>
